#!OML:ASF C:\Vicon Data\Big\jianyuan-13\jianyuan\Session 1\Capture.male.ASF
:FULLY-SPECIFIED
:DEGREES
209
root -7.757781 17.472060 -14.777004 10.924305 3.887391 1.847814
lowerback -8.262898 -0.591874 -2.555508 
upperback -0.287236 -0.588495 -0.033985 
thorax 4.362899 -0.361619 1.330490 
lowerneck -10.308144 -1.595779 4.283330 
upperneck 12.343719 -2.461640 -3.759737 
head 5.306719 -1.326209 -2.065475 
rclavicle 0.000000 0.000000 
rhumerus -40.364238 -19.641855 -78.943780 
rradius 29.259589 
rwrist 29.006038 
rhand -21.208372 -15.585921 
rfingers 0.000000 
rthumb 5.173185 -45.502760 
lclavicle 0.000000 0.000000 
lhumerus -32.307556 34.709700 77.404637 
lradius 25.011315 
lwrist -58.676414 
lhand -23.084826 0.239984 
lfingers 0.000000 
lthumb 3.361204 30.193199 
rfemur -34.560789 1.243268 19.137262 
rtibia 52.205727 
rfoot -12.860697 -6.944759 
rtoes -18.727144 
lfemur -19.441162 -7.240684 -22.469578 
ltibia 17.105785 
lfoot -9.574026 3.384126 
ltoes -14.080264 
210
root -7.756868 17.475523 -14.740368 10.943488 3.876568 1.752213
lowerback -8.201098 -0.618369 -2.470923 
upperback -0.274847 -0.633785 0.011636 
thorax 4.342629 -0.381974 1.325357 
lowerneck -10.356318 -1.558720 4.252042 
upperneck 12.412161 -2.414245 -3.723829 
head 5.339147 -1.302595 -2.047516 
rclavicle 0.000000 0.000000 
rhumerus -40.510969 -19.906317 -78.687652 
rradius 29.018873 
rwrist 29.852137 
rhand -21.363702 -15.325919 
rfingers 0.000000 
rthumb 5.023178 -45.246361 
lclavicle 0.000000 0.000000 
lhumerus -31.694546 34.100129 78.024447 
lradius 25.177717 
lwrist -57.983466 
lhand -23.020813 0.249546 
lfingers 0.000000 
lthumb 3.423037 30.201803 
rfemur -34.764513 1.539211 19.113030 
rtibia 51.492676 
rfoot -12.996359 -7.105126 
rtoes -18.510175 
lfemur -19.289146 -7.278026 -22.373587 
ltibia 17.026375 
lfoot -9.638593 3.471000 
ltoes -14.648512 
211
root -7.756548 17.478075 -14.702927 10.990478 3.858584 1.692012
lowerback -8.183453 -0.641686 -2.430357 
upperback -0.261469 -0.670048 0.062768 
thorax 4.348361 -0.399277 1.351409 
lowerneck -10.381736 -1.534407 4.232914 
upperneck 12.436095 -2.376494 -3.747056 
head 5.352398 -1.287015 -2.049724 
rclavicle 0.000000 0.000000 
rhumerus -40.598557 -19.941916 -78.569442 
rradius 28.868184 
rwrist 30.103131 
rhand -21.555803 -15.270721 
rfingers 0.000000 
rthumb 4.837693 -45.195454 
lclavicle 0.000000 0.000000 
lhumerus -31.088634 33.403034 78.723856 
lradius 25.405173 
lwrist -57.081593 
lhand -22.997346 0.408497 
lfingers 0.000000 
lthumb 3.445692 30.360383 
rfemur -34.965875 1.796288 19.066583 
rtibia 50.752592 
rfoot -13.062863 -7.218874 
rtoes -18.463121 
lfemur -19.144026 -7.303044 -22.310047 
ltibia 16.919280 
lfoot -9.728700 3.510838 
ltoes -14.712269 
212
root -7.756172 17.480259 -14.665416 11.056705 3.846065 1.685550
lowerback -8.190553 -0.670789 -2.432821 
upperback -0.245441 -0.708796 0.095472 
thorax 4.371146 -0.418885 1.381996 
lowerneck -10.407744 -1.515133 4.234090 
upperneck 12.442101 -2.344790 -3.795506 
head 5.359286 -1.275044 -2.063289 
rclavicle 0.000000 0.000000 
rhumerus -40.640760 -19.878599 -78.549847 
rradius 28.796652 
rwrist 29.940233 
rhand -21.704578 -15.347155 
rfingers 0.000000 
rthumb 4.694052 -45.275133 
lclavicle 0.000000 0.000000 
lhumerus -30.491342 32.676945 79.415555 
lradius 25.663819 
lwrist -56.166482 
lhand -22.983731 0.593646 
lfingers 0.000000 
lthumb 3.458822 30.545298 
rfemur -35.166529 2.024287 18.963274 
rtibia 49.984375 
rfoot -13.084592 -7.282430 
rtoes -18.407333 
lfemur -19.010205 -7.339241 -22.299095 
ltibia 16.804099 
lfoot -9.869495 3.519912 
ltoes -14.078273 
213
root -7.754933 17.483122 -14.629062 11.125139 3.862834 1.717439
lowerback -8.188660 -0.716326 -2.447190 
upperback -0.224211 -0.767059 0.094176 
thorax 4.394882 -0.448154 1.381678 
lowerneck -10.467697 -1.490481 4.264279 
upperneck 12.465743 -2.313503 -3.826767 
head 5.377320 -1.260665 -2.076947 
rclavicle 0.000000 0.000000 
rhumerus -40.669150 -19.920291 -78.536989 
rradius 28.749622 
rwrist 29.793559 
rhand -21.740759 -15.399688 
rfingers 0.000000 
rthumb 4.659103 -45.328446 
lclavicle 0.000000 0.000000 
lhumerus -29.889944 31.980259 80.004704 
lradius 25.899734 
lwrist -55.464342 
lhand -22.941036 0.638483 
lfingers 0.000000 
lthumb 3.500029 30.589474 
rfemur -35.367321 2.247195 18.799379 
rtibia 49.184668 
rfoot -13.101783 -7.321404 
rtoes -18.121296 
lfemur -18.890360 -7.406661 -22.327694 
ltibia 16.700298 
lfoot -10.057477 3.526689 
ltoes -12.864821 
214
root -7.755973 17.490262 -14.591179 11.128669 3.873503 1.563810
lowerback -8.126210 -0.744953 -2.293295 
upperback -0.199525 -0.821543 0.153379 
thorax 4.386511 -0.471783 1.350642 
lowerneck -10.514142 -1.471464 4.274008 
upperneck 12.484415 -2.284781 -3.870317 
head 5.391497 -1.249485 -2.091061 
rclavicle 0.000000 0.000000 
rhumerus -40.736699 -20.024164 -78.439314 
rradius 28.688114 
rwrist 29.965373 
rhand -21.697766 -15.372857 
rfingers 0.000000 
rthumb 4.700574 -45.300673 
lclavicle 0.000000 0.000000 
lhumerus -29.359436 31.142290 80.611547 
lradius 26.199429 
lwrist -54.594991 
lhand -22.950686 0.639965 
lfingers 0.000000 
lthumb 3.490701 30.591122 
rfemur -35.485160 2.555348 18.816639 
rtibia 48.351328 
rfoot -13.207696 -7.310640 
rtoes -17.691602 
lfemur -18.687948 -7.372792 -22.168118 
ltibia 16.558531 
lfoot -10.070266 3.532416 
ltoes -13.961454 
215
root -7.757116 17.493655 -14.552266 11.129051 3.870592 1.514655
lowerback -8.041801 -0.778450 -2.215256 
upperback -0.192098 -0.874363 0.150720 
thorax 4.347766 -0.495561 1.298673 
lowerneck -10.526857 -1.442480 4.239192 
upperneck 12.517017 -2.252293 -3.787650 
head 5.406797 -1.229579 -2.057736 
rclavicle 0.000000 0.000000 
rhumerus -40.839632 -20.098826 -78.386405 
rradius 28.605325 
rwrist 30.046186 
rhand -21.707686 -15.290764 
rfingers 0.000000 
rthumb 4.691000 -45.218788 
lclavicle 0.000000 0.000000 
lhumerus -28.883737 30.278256 81.117470 
lradius 26.505749 
lwrist -53.766353 
lhand -22.939286 0.655711 
lfingers 0.000000 
lthumb 3.501732 30.606687 
rfemur -35.573009 2.782869 18.758218 
rtibia 47.485633 
rfoot -13.279740 -7.323496 
rtoes -17.653567 
lfemur -18.454898 -7.371688 -22.127144 
ltibia 16.389255 
lfoot -10.101578 3.590842 
ltoes -14.699149 
216
root -7.757789 17.496401 -14.514136 11.159495 3.892388 1.514934
lowerback -7.974165 -0.819773 -2.199969 
upperback -0.197106 -0.932298 0.152700 
thorax 4.306708 -0.523366 1.286165 
lowerneck -10.526951 -1.418016 4.201142 
upperneck 12.552483 -2.223127 -3.722231 
head 5.420481 -1.212845 -2.029423 
rclavicle 0.000000 0.000000 
rhumerus -40.944995 -20.145977 -78.322031 
rradius 28.536841 
rwrist 30.073395 
rhand -21.706311 -15.239014 
rfingers 0.000000 
rthumb 4.692357 -45.167040 
lclavicle 0.000000 0.000000 
lhumerus -28.436018 29.441887 81.621659 
lradius 26.828172 
lwrist -52.994759 
lhand -22.897722 0.698710 
lfingers 0.000000 
lthumb 3.541868 30.649005 
rfemur -35.675011 2.964373 18.649997 
rtibia 46.593375 
rfoot -13.344320 -7.333434 
rtoes -17.758105 
lfemur -18.255993 -7.420317 -22.129219 
ltibia 16.215670 
lfoot -10.150123 3.650959 
ltoes -15.035648 
217
root -7.758251 17.500572 -14.476646 11.216538 3.940889 1.507912
lowerback -7.937397 -0.865972 -2.204491 
upperback -0.203342 -0.995585 0.186033 
thorax 4.282743 -0.554748 1.316412 
lowerneck -10.533252 -1.397041 4.184464 
upperneck 12.583240 -2.192925 -3.725211 
head 5.432558 -1.199574 -2.026013 
rclavicle 0.000000 0.000000 
rhumerus -41.043819 -20.220955 -78.196366 
rradius 28.476446 
rwrist 30.193699 
rhand -21.615836 -15.185929 
rfingers 0.000000 
rthumb 4.779743 -45.112016 
lclavicle 0.000000 0.000000 
lhumerus -27.995102 28.624906 82.159035 
lradius 27.169611 
lwrist -52.254527 
lhand -22.838131 0.779468 
lfingers 0.000000 
lthumb 3.599383 30.728790 
rfemur -35.790159 3.147351 18.536225 
rtibia 45.676563 
rfoot -13.402060 -7.325505 
rtoes -17.891201 
lfemur -18.095448 -7.503883 -22.109891 
ltibia 16.044921 
lfoot -10.207487 3.700191 
ltoes -15.190714 
218
root -7.759739 17.508037 -14.437550 11.257063 3.981116 1.411333
lowerback -7.925861 -0.906713 -2.136829 
upperback -0.188252 -1.057748 0.247158 
thorax 4.294413 -0.584566 1.334596 
lowerneck -10.570108 -1.361898 4.206680 
upperneck 12.602179 -2.143550 -3.772959 
head 5.445901 -1.178066 -2.041793 
rclavicle 0.000000 0.000000 
rhumerus -41.148416 -20.458360 -77.945209 
rradius 28.371692 
rwrist 30.729648 
rhand -21.311399 -14.964084 
rfingers 0.000000 
rthumb 5.073682 -44.883412 
lclavicle 0.000000 0.000000 
lhumerus -27.536874 27.750886 82.712115 
lradius 27.527408 
lwrist -51.465457 
lhand -22.799860 0.910435 
lfingers 0.000000 
lthumb 3.636334 30.859163 
rfemur -35.869923 3.412606 18.498818 
rtibia 44.734017 
rfoot -13.426893 -7.290559 
rtoes -18.032339 
lfemur -17.916117 -7.568346 -21.989264 
ltibia 15.870384 
lfoot -10.254323 3.760804 
ltoes -15.749059 
